<svg xmlns="http://www.w3.org/2000/svg" viewBox="0 0 256 256">
  <rect width="256" height="256" fill="none"/>
  <path fill="#FF1493" d="M128,24A104,104,0,1,0,232,128,104.11,104.11,0,0,0,128,24Zm0,192a88.16,88.16,0,0,1-38.33-8.8L126.8,128.4l11.66-20.2l49.2,28.4A92.05,92.05,0,0,1,128,216ZM97.05,62.88,142.14,141h-28.5L52.82,130A88,88,0,0,1,97.05,62.88ZM60.82,185.74A88,88,0,0,1,41,102.39L108.18,141l-14.82,25.66Zm134.36-122.9A88,88,0,0,1,215,153.6l-67.12-38.74,14.82-25.66Zm-53,30.34L130.56,93.4l28.52,11L203.2,96.6a87.91,87.91,0,0,1-19.49,43.25Z"/>
</svg>
